<?xml version="1.0" encoding="UTF-8" standalone="no"?>
<svg
   xmlns:dc="http://purl.org/dc/elements/1.1/"
   xmlns:cc="http://creativecommons.org/ns#"
   xmlns:rdf="http://www.w3.org/1999/02/22-rdf-syntax-ns#"
   xmlns:svg="http://www.w3.org/2000/svg"
   xmlns="http://www.w3.org/2000/svg"
   viewBox="0 0 953.90265 953.90265"
   height="953.90265"
   width="953.90265"
   xml:space="preserve"
   id="svg3680"
   version="1.1"><metadata
     id="metadata3686"><rdf:RDF><cc:Work
         rdf:about=""><dc:format>image/svg+xml</dc:format><dc:type
           rdf:resource="http://purl.org/dc/dcmitype/StillImage" /><dc:title></dc:title></cc:Work></rdf:RDF></metadata><defs
     id="defs3684" /><g
     transform="matrix(1.3333333,0,0,-1.3333333,0,953.90267)"
     id="g3688"><g
       transform="translate(-67.975,-51.158)"
       id="g3690"><g
         id="g3692"><g
           id="g3694"><path
             id="path3696"
             style="fill:#ffffff;fill-opacity:1;fill-rule:nonzero;stroke:none"
             d="m 283.62498,375.9808 c 12.12139,-2.90911 32.54506,-4.52442 44.00225,3.94393 11.18486,8.26645 13.11764,28.72598 7.53317,32.0469 -9.3278,5.54727 -62.9926,-2.65673 -73.1214,-3.32092 -1.99255,-11.12509 8.01671,-29.41273 21.58598,-32.66991 m 51.47432,63.38845 c 0,0 1.32836,14.11392 -1.65913,21.18615 -5.53531,13.10569 -10.96039,17.82937 -35.5352,17.82937 -16.81052,0 -31.71483,-4.14583 -37.56629,-18.13753 -4.05949,-9.70641 -2.99282,-24.16437 1.59539,-24.80864 7.50793,-1.05472 73.16523,3.93065 73.16523,3.93065 m -89.42448,55.81541 c 12.73375,9.08737 30.03575,15.14208 53.50272,15.14208 47.85051,0 62.59939,-27.50919 63.65146,-40.23896 h 0.60176 c 3.60519,16.88092 30.53123,39.51899 34.52563,49.73679 1.46918,3.75931 -4.09537,5.85281 -7.39769,3.89612 -2.98883,-1.77071 -19.26135,-19.17766 -31.3827,-19.17766 -5.85282,0 -15.69071,5.22978 -15.69071,13.54405 0,7.46012 21.87825,27.24752 30.46881,39.67307 5.94579,8.59985 13.18407,21.13035 16.10646,35.86595 3.98511,20.0916 12.9516,27.23158 24.24275,27.23158 8.5786,0 21.91809,-9.46463 13.94788,-35.03573 -4.09935,-13.15352 -10.59109,-37.32717 0.49814,-38.35666 16.10646,-1.49442 132.35071,14.47789 151.15776,7.36183 10.23907,-3.87486 20.53393,-16.32832 10.62697,-30.55251 -2.1772,-3.12564 -46.05059,3.26514 -77.93144,3.26514 -11.57674,0 -74.29303,-2.02974 -84.95717,-16.35753 -11.01751,-14.80336 4.25874,-30.79958 4.25874,-41.75862 0,-18.26508 -18.09901,-43.67014 -18.09901,-106.43558 0,-34.37286 2.82276,-65.42218 7.58232,-142.02524 2.00451,-32.26077 -28.006,-27.21031 -32.98738,1.55021 -3.61583,20.87931 -7.52788,73.50265 -7.74839,90.55093 -45.22035,1.60468 -102.50627,-4.64928 -132.39457,-11.95532 -8.11101,-1.98325 -18.81235,20.41838 -16.38676,25.86335 4.43143,9.94683 71.07041,13.60117 104.72332,15.75846 14.80467,0.94977 24.74086,0.76246 44.05801,-0.22185 0.1687,12.43088 0.0173,18.04855 1.10653,34.75943 1.1238,17.24223 4.6918,45.43422 8.24254,58.82019 4.5988,17.3392 14.00764,28.52008 9.4686,30.84472 -6.34695,3.25053 -26.01344,-37.39225 -30.49668,-58.96629 -2.89452,-13.92796 1.50636,-36.28308 -20.64552,-50.62416 -18.20928,-11.78927 -67.3337,-19.72628 -92.93004,-3.81906 -17.54511,10.90326 -29.72226,26.84369 -29.72226,71.12354 0,26.06926 -0.66419,55.7915 19.99992,70.53773 M 517.47322,323.0817 c 0.86743,-2.92374 2.85068,-4.6772 4.59483,-4.8645 3.36608,-0.36265 20.81023,-0.0611 22.66463,1.51568 6.14105,5.22447 8.13626,20.6734 5.15142,22.32722 -2.42562,1.34298 -19.40348,-0.0651 -28.0472,-2.64346 -1.66045,-0.49415 -4.69577,-1.99919 -5.01457,-4.98537 -0.45565,-4.25343 -0.26834,-8.25048 0.65089,-11.34957 m -66.52872,53.41105 c 1.77073,2.76833 7.85863,5.47952 17.48932,5.97766 12.54113,0.64959 56.52741,5.06641 62.55556,3.67295 3.19872,-0.73857 1.0401,-8.3767 -1.59008,-11.83443 -1.95402,-2.56775 -5.65485,-6.50636 -7.33259,-8.74733 -1.88495,-2.51859 -2.84935,-5.39052 -0.63229,-6.62723 2.45881,-1.37088 23.32615,1.67374 29.73288,2.80817 5.54992,0.983 7.55444,6.68304 10.66813,11.12511 5.25769,7.50129 13.08976,11.7069 18.84559,11.7069 6.75341,0 8.54006,-11.5847 7.8719,-19.60273 -1.03612,-12.45346 -12.8998,-54.054 -16.45584,-62.34568 -0.93517,-2.18252 -4.33446,-3.73138 -7.27282,-3.73138 -4.58021,0 -29.97198,1.90886 -40.21771,-1.31244 -2.55313,-0.80234 -3.28637,-2.92241 -2.53984,-8.40193 0.59245,-4.34377 9.44605,-42.54369 10.60437,-50.56703 2.29279,-15.87934 -13.18938,-18.5985 -22.0363,-7.07489 -7.77362,10.12481 -11.95134,22.04561 -15.86075,34.73419 -4.70108,15.25764 -2.65806,26.4744 -12.83468,25.42631 -12.96753,-1.33634 -36.08782,-17.85061 -47.88771,-17.85061 -8.4657,0 -10.21515,14.45531 -6.63123,20.39709 6.30977,10.46091 46.11966,21.04535 58.64484,22.04297 0.83025,7.88785 0.79969,12.90909 -1.19286,19.55092 -7.22235,0.0837 -15.52466,-1.82649 -24.67047,-6.02679 -10.97366,-5.03985 -25.0836,-8.52018 -30.63353,-8.52018 -6.08925,0 -10.39449,15.34931 -0.87407,22.54509 4.92427,3.7221 15.06238,6.48642 19.58415,7.28744 8.86421,1.5688 36.87155,0.90461 39.58008,6.56878 0.716,1.49972 0.99895,5.34933 -1.47847,6.43594 -2.45483,1.07732 -18.94253,-2.46943 -27.68719,-1.58474 -8.41655,0.85281 -10.13547,10.21914 -7.74839,13.94787 m 12.34919,100.83319 c 5.14079,-2.42296 94.63966,1.06401 99.37131,3.22261 5.44499,2.48273 4.98936,11.29114 -0.41445,13.6158 -5.40381,2.32463 -90.5589,-1.57678 -95.80862,-3.43118 -6.47979,-2.29012 -7.99811,-11.12111 -3.14824,-13.40723 m 47.31651,38.31415 c 38.30087,0 65.97612,0 77.42267,-10.93381 5.44365,-5.20056 8.92133,-22.9396 -1.2965,-34.33302 -9.64264,-10.75316 -48.8946,-12.73907 -83.75631,-12.88785 -10.62697,-0.0465 -49.32369,-2.00982 -55.59491,2.18917 -19.71567,13.20265 -15.53794,33.53866 -6.95668,40.68925 13.28369,11.06931 25.23901,14.39023 70.18173,15.27626 M 467.77003,410.87692 c 9.29859,-0.19127 81.80495,3.03267 92.72149,5.01062 10.20587,1.85042 9.72898,11.02812 3.91735,11.85834 -8.12827,1.161 -92.00151,-2.68596 -99.451,-5.0425 -6.15433,-1.94604 -4.24414,-11.68167 2.81216,-11.82646 m -16.40802,31.92736 c 21.75072,9.7024 125.44454,10.18062 134.30079,3.53878 12.68325,-9.51245 12.53315,-28.6755 7.62217,-38.37658 -8.72871,-17.24889 -88.57432,-17.24889 -128.83587,-17.24889 -13.94788,0 -30.38645,8.46835 -30.38645,24.24275 0,7.30602 -0.0784,20.09157 17.29936,27.84394 m -323.75418,-114.54966 -0.93942,2.52058 -21.10981,-7.86771 22.19402,-59.54857 2.6256,0.97856 c -2.28076,7.40322 -1.44911,9.98582 4.01213,12.02125 l 50.83157,18.94518 c 5.46125,2.03543 7.16452,0.99567 10.90129,-6.46295 l 2.6256,0.97856 -14.09146,37.80861 -2.6256,-0.97856 c 3.18106,-9.81877 2.62534,-12.17893 -3.15098,-14.33179 l -24.47057,-9.1203 c -3.78253,10.79072 -1.34494,16.12491 10.28984,22.13582 l -0.97857,2.6256 -35.49808,-13.23031 0.97856,-2.62559 c 12.67731,2.57185 17.72315,0.26602 21.63744,-10.23638 l -24.36554,-9.08116 c -3.8859,-1.44827 -5.445,-0.47439 -7.44129,4.88182 -7.63287,20.47968 -0.19905,24.92487 8.57527,30.58734 m -27.46338,48.30668 -2.789,-0.2699 3.64888,-37.70728 2.789,0.26988 c 0.0252,7.88477 1.34598,9.36383 9.37829,10.1411 l 37.26106,3.60571 c 10.93287,1.05797 16.17262,3.92971 20.42273,11.20987 3.38643,5.73273 4.70358,13.0669 3.91551,21.21077 -2.08354,21.53109 -15.50308,27.55179 -32.46021,25.91088 l -35.58764,-3.44376 c -6.58205,-0.63695 -8.51814,0.75217 -10.32467,7.78404 l -2.789,-0.26988 2.37502,-24.54321 2.789,0.2699 c -0.1727,8.76644 1.84259,11.21358 9.98648,12.00164 l 34.02582,3.29262 c 16.51088,1.59775 24.81307,-3.90472 26.09773,-17.18038 1.10114,-11.37911 -4.9951,-17.03623 -20.16726,-18.50443 l -37.26105,-3.60572 c -8.81325,-0.85284 -10.14476,1.27041 -11.31069,9.82815 m 60.38939,53.60754 c 4.84291,-0.93088 6.51534,-4.10565 5.50841,-10.53182 l 2.75165,-0.5289 6.6854,34.78095 c 4.56973,23.77431 -7.57291,42.54341 -30.35662,46.92276 -22.67366,4.35818 -39.39381,-8.40654 -44.28091,-33.83185 l -6.45267,-33.57022 2.75166,-0.5289 c 2.01439,6.9173 4.06735,8.69121 9.1304,7.71803 m 36.82131,40.74407 c 25.5354,-4.90825 30.45972,-16.69741 28.25946,-28.14429 -0.95203,-4.95299 -2.65793,-6.10881 -7.61092,-5.15678 l -56.57405,10.87431 c -2.53152,0.4866 -3.42918,2.9418 -2.60409,7.23439 1.90405,9.90597 11.45332,20.39681 38.5296,15.19237 m 69.84233,76.62277 -0.20104,-0.40073 c -1.96008,-3.90706 -4.86804,-4.45451 -19.20233,-3.53297 l -63.90289,4.09596 -1.40724,-2.80505 43.74156,-49.78212 c 7.40697,-8.48098 8.30656,-10.43703 6.79574,-15.69805 l 2.50454,-1.25648 10.20259,20.3367 -2.50452,1.2565 c -3.36601,-5.70964 -5.62396,-7.46095 -8.22865,-6.15422 -1.30236,0.65338 -3.4048,2.7113 -7.75913,7.52908 l -3.15315,3.46283 11.30829,22.54067 c 9.52292,-0.51405 13.73253,-1.12122 15.93651,-2.22692 2.1038,-1.05543 2.45222,-2.86038 0.89352,-6.46722 -0.25128,-0.50091 -0.80447,-1.85353 -1.30775,-3.35657 l 2.50453,-1.25648 16.28395,32.45858 M 166.66711,518.48 l -19.61958,21.62994 29.42009,-2.0947 m 3.08823,91.04282 -16.52181,-16.92073 2.00482,-1.95757 c 1.56604,1.60387 4.10007,1.79261 12.42958,1.17864 l 38.01149,-37.11536 c 4.57099,-4.46324 4.51917,-6.76237 -0.47518,-13.32118 l 2.00482,-1.95755 17.77466,18.20379 -2.00483,1.95757 c -6.75102,-5.47015 -9.68412,-5.42586 -15.37783,0.13361 l -32.23757,31.47758 78.62616,-6.75027 2.19248,2.24541 -47.23368,46.12014 c -4.57098,4.46324 -4.59556,6.52367 -0.30783,12.51924 l -2.00482,1.95757 -16.83504,-17.24149 2.00483,-1.95758 c 6.35572,5.38617 9.52752,5.26549 15.22123,-0.29399 l 24.45887,-23.88225 m 88.93257,98.38349 -0.81273,2.68157 -36.2549,-10.9881 0.81273,-2.68157 c 7.73599,1.52481 9.44575,0.52049 11.78642,-7.20244 l 10.85805,-35.82585 c 3.18591,-10.51178 7.03137,-15.08496 15.00483,-17.82149 6.28644,-2.19377 13.73644,-2.0439 21.56665,0.32925 20.70174,6.27428 23.96781,20.61536 19.02642,36.91933 l -10.37044,34.21691 c -1.91804,6.32852 -0.93651,8.49986 5.60323,11.65307 l -0.81273,2.68159 -23.59786,-7.15203 0.81273,-2.68157 c 8.56157,1.89213 11.35701,0.39707 13.73018,-7.43315 l 9.91531,-32.71521 c 4.81134,-15.87492 1.04776,-25.09658 -11.71655,-28.96518 -10.94081,-3.31593 -17.68568,1.54967 -22.10695,16.13743 l -10.85806,35.82585 c -2.56822,8.47378 -0.74805,10.19659 7.41367,13.02159 m 77.92222,16.72299 -23.64601,-0.38333 0.0454,-2.80167 c 2.24133,0.0363 4.17372,-1.61377 9.65646,-7.91435 L 395.058,674.3413 c 0.10357,-6.38778 -1.552,-7.98395 -9.71649,-9.12519 l 0.0454,-2.80167 25.43905,0.41242 -0.0454,2.80166 c -8.64545,0.8687 -10.69718,2.96528 -10.82616,10.92197 l -0.73036,45.05071 51.08202,-60.15201 3.13787,0.0509 -1.07011,66.0071 c -0.10356,6.3878 1.32968,7.86827 8.59584,9.10704 l -0.0454,2.80165 -24.09427,-0.39063 0.0454,-2.80163 c 8.30562,-0.65003 10.47304,-2.96891 10.60204,-10.92563 l 0.55412,-34.18024 m 26.91313,-21.72226 c -1.22633,-5.46824 -3.53828,-6.55786 -11.9123,-5.4839 l -0.61316,-2.73413 38.27761,-8.58435 0.61316,2.73412 c -8.18908,2.41085 -9.92363,4.40797 -8.64824,10.09492 l 11.87094,52.93248 c 1.27539,5.68695 3.96449,6.92174 12.13103,5.43484 l 0.61318,2.73412 -38.27762,8.58437 -0.61316,-2.73413 c 7.75162,-2.31273 9.68037,-4.46827 8.42952,-10.04587 m 113.06979,-30.58075 -21.63353,10.09573 -1.18495,-2.53914 c 6.9742,-3.87307 8.16589,-5.295 6.64917,-8.5451 -0.75838,-1.62507 -1.63184,-2.70167 -5.39656,-6.26325 l -28.49275,-27.39564 1.81477,40.46389 c 0.20314,5.47103 0.36565,6.87941 1.07662,8.40291 1.09016,2.33602 3.13502,2.74227 7.08932,1.14429 0.50784,-0.23698 1.8756,-0.7516 3.44647,-1.36101 l 1.18495,2.53916 -34.12614,15.92566 -1.18495,-2.53914 c 4.7465,-3.08086 5.28142,-4.31996 5.21368,-11.09104 l -2.39041,-72.97181 2.74228,-1.27974 50.97954,48.81248 c 5.37625,5.15955 7.41434,5.81633 13.02756,4.06259 m -6.75473,-83.48829 c -5.51284,4.58949 -6.21721,7.07179 -3.13366,10.77571 l 17.35402,20.8454 c 9.38904,-7.81647 10.12398,-14.11602 2.83918,-24.96854 l 2.23959,-1.86449 24.23825,29.11463 -2.23958,1.8645 c -9.32369,-8.57179 -15.25023,-9.03389 -24.29471,-1.50426 l -0.34456,0.28685 16.63692,19.98401 c 2.72501,3.27324 4.49019,3.11623 8.96938,-0.61272 14.04048,-11.68887 15.82307,-18.13139 8.43898,-31.38051 l 2.15345,-1.79277 14.41387,17.31374 -49.7016,41.37714 -1.79277,-2.15346 c 5.65668,-5.29259 6.14592,-8.03331 2.48868,-12.42635 l -34.70804,-41.69078 c -3.72897,-4.47917 -5.72371,-4.42273 -12.67162,0.19477 l -1.79277,-2.15346 50.39072,-41.95082 18.36136,15.04826 -2.41185,2.0079 c -11.52083,-5.43008 -21.82344,-7.64508 -35.43324,3.68525 M 701.05119,554.4144 c 10.765,7.08868 10.55994,20.23932 -0.72032,37.36975 l -19.84832,30.14203 -2.34022,-1.54102 c 4.09338,-7.23524 3.55221,-9.4704 -3.18762,-13.90852 l -41.37511,-27.2452 c -6.83343,-4.49977 -8.38594,-4.18008 -14.03639,2.56664 l -2.34023,-1.54102 20.83457,-31.63978 2.34021,1.54101 c -3.87188,7.9179 -3.45859,9.53204 3.18765,13.90853 l 18.34732,12.08157 1.66431,-2.52743 -16.53995,-38.67057 12.63635,-19.18982 2.34023,1.54102 c -1.10955,1.68497 -1.34922,3.27171 -0.74871,5.00912 l 14.28873,36.383 c 7.08656,-5.66686 15.29413,-10.99815 25.4975,-4.27931 m -5.01256,36.95891 c 5.67096,-8.61202 3.92648,-14.72608 -5.90245,-21.19837 -11.42027,-7.52016 -16.53433,-4.84878 -25.22797,7.94595 l 23.87026,15.71839 c 3.27631,2.15742 5.3493,0.4359 7.26016,-2.46597 m 44.39742,-77.82309 c -4.75461,14.48254 -15.85597,20.62921 -29.27362,16.22421 -9.37105,-3.07651 -14.26194,-10.81644 -16.17156,-25.4814 l -1.06531,-8.25351 c -1.39604,-10.83939 -3.32573,-14.30409 -8.86316,-16.12202 -7.34776,-2.41227 -13.85282,1.23249 -16.54477,9.43217 -5.34892,16.29285 10.36086,25.93309 15.6568,29.20529 l -1.01385,3.0882 -26.30284,-8.6352 1.01385,-3.08818 c 2.87199,0.23508 4.11008,-0.3022 4.66944,-2.00604 1.18865,-3.62062 -0.89373,-9.4948 2.35757,-19.3983 5.17413,-15.76041 17.72174,-23.43771 31.13939,-19.0327 7.98669,2.62201 14.3652,10.14255 15.53542,18.07657 l 2.63455,18.20604 c 1.42778,10.02403 3.32087,13.2408 8.43236,14.9189 6.60234,2.16753 12.11727,-0.97653 14.49456,-8.2178 2.65699,-8.09317 -0.11699,-17.96933 -12.95317,-27.02007 l 0.97888,-2.9817 23.10817,7.58638 -1.04881,3.19468 c -3.01343,-0.16354 -4.14503,0.40869 -4.73937,2.21899 -0.97888,2.98171 0.85717,9.2469 -2.04453,18.08549 M 687.61682,449.9649 c -5.56392,-0.6694 -7.36282,1.14617 -9.14587,9.39837 l -2.78197,-0.33471 4.68584,-38.94754 2.78196,0.33471 c -0.4611,8.52412 0.84242,10.82583 6.62892,11.52203 l 53.85888,6.47984 c 5.7865,0.69617 7.8481,-1.42647 9.17267,-9.62092 l 2.78195,0.3347 -4.68582,38.94752 -2.78198,-0.3347 c 0.40754,-8.079 -0.98049,-10.61667 -6.65569,-11.29945 m -48.78617,-63.05057 c -8.26002,0.74999 -9.37638,2.08932 -9.28611,11.75975 l -2.79056,0.25337 -3.61821,-39.84903 2.79054,-0.25337 c 1.55149,9.6503 2.77919,10.7768 11.26247,10.00652 l 58.82475,-5.34117 c -1.6931,-13.68895 -7.35474,-19.02709 -20.81004,-19.71859 l -0.29392,-3.23703 22.45629,-1.8139 6.08102,66.97314 -22.40559,2.37201 -0.29392,-3.23703 c 13.11072,-3.10363 17.71829,-9.37419 16.90804,-23.25584 m -26.84535,-124.05245 8.12011,23.28246 -2.64573,0.92274 c -3.00209,-6.90602 -4.4762,-8.40985 -7.54525,-7.33946 -2.01075,0.70128 -5.19806,3.47472 -8.61433,7.63375 l -15.48148,18.57533 28.98157,4.13652 c 1.4176,-0.0196 4.80151,1.17425 7.12978,0.36224 2.32824,-0.81201 2.62123,-2.69471 1.10795,-7.03372 l -0.81691,-2.68265 2.64572,-0.92274 12.36469,35.45287 -2.64574,0.92274 c -1.46657,-3.5244 -4.43698,-5.57468 -8.77337,-6.43634 l -41.88982,-7.11283 -15.55693,5.42571 c -7.72554,2.6944 -8.48367,4.26452 -6.30373,13.23782 l -2.64573,0.92275 -12.80761,-36.72284 2.64574,-0.92273 c 3.87322,8.38274 5.30062,9.07194 13.13199,6.34064 l 19.47263,-6.79136 25.86323,-31.69229 c 1.91733,-2.33053 2.34328,-4.85313 1.61748,-8.63587 M 273.51736,191.97931 c 2.35816,-1.51372 2.06368,-4.25493 -0.78213,-8.68829 l -23.31131,-36.31571 c -4.96501,-7.73479 -7.88089,-8.12736 -17.27975,-2.22734 l -1.45319,-2.26385 35.37245,-22.70585 1.45319,2.26384 c -8.46262,5.69861 -9.15795,8.14286 -4.49567,15.40599 l 34.51288,53.76615 -1.60355,1.02933 -30.37011,4.97672 -1.57428,-2.45248 c 1.81196,-0.49716 7.07899,-1.21423 9.53147,-2.78851 M 345.24698,86.84572 c 15.84553,-0.43907 23.83112,1.03645 33.56474,6.07907 12.72568,6.57721 20.7159,17.37691 23.11861,31.40784 3.27297,19.11297 -4.75333,33.3377 -20.22048,35.98635 -13.80996,2.36486 -25.62609,-6.86991 -28.21798,-22.00563 -2.23242,-13.0366 4.31907,-23.25605 16.36136,-25.3182 4.19822,-0.71892 7.16528,-0.65842 10.41311,0.37748 -7.62629,-15.9794 -18.06976,-23.17486 -34.52746,-23.65446 m 40.01609,43.75266 c -0.51081,-2.98296 -1.33718,-6.48046 -2.51997,-11.39528 l -0.82333,-2.81574 c -0.31859,-1.19635 -0.32769,-3.24174 -5.63073,-2.33363 -6.84973,1.17299 -8.27453,8.12642 -5.30429,25.47172 2.19461,12.81563 4.08793,15.903 9.50142,14.97597 5.19257,-0.88917 7.80391,-6.22629 4.7769,-23.90304 m 81.03902,-14.20911 c 5.18907,-22.49945 19.15871,-36.18704 33.68504,-32.83681 14.08948,3.24947 20.82139,21.94156 15.75826,43.89491 -5.03795,21.84412 -19.43601,35.89304 -33.52547,32.64356 -14.08946,-3.24947 -20.85502,-22.29442 -15.91783,-43.70166 m 32.97974,-29.77864 c -5.46103,-1.25949 -9.0224,4.70593 -12.75049,20.87059 l -5.76845,25.01152 c -3.80365,16.49232 -3.18945,23.30571 2.05313,24.51483 5.35181,1.2343 9.09798,-5.03358 12.80088,-21.08902 l 5.76844,-25.01152 c 4.18151,-18.13063 2.26532,-23.2888 -2.10351,-24.2964 m 94.81747,54.23761 c -3.26704,-2.36833 -3.98189,-6.34757 -1.67935,-9.52385 3.48671,-4.8098 11.05281,-4.17046 19.12965,1.6846 14.97391,10.85484 19.0131,27.627 9.73714,40.4229 -6.84186,9.43811 -17.91287,12.48782 -29.84412,8.13031 -4.17219,-1.50164 -7.24862,-3.17803 -15.01915,-8.11879 l -3.33222,8.79814 25.22877,18.28877 -4.45264,14.3542 -29.22181,-21.18339 13.89364,-37.69043 c 9.08187,5.6145 13.19738,7.76727 18.11142,9.39137 9.91889,3.31401 18.47855,1.62792 22.82047,-4.36165 3.68408,-5.08204 2.58566,-11.96971 -2.49639,-15.65379 -5.80807,-4.21036 -16.43209,0.13249 -22.87541,-4.53839" /><g
             id="g3698"><path
               id="path3700"
               style="fill:#ffffff;fill-opacity:1;fill-rule:evenodd;stroke:none"
               d="m 666.68268,408.87668 c 0,133.09612 -107.89263,240.98874 -240.98874,240.98874 -133.09612,0 -240.98874,-107.89262 -240.98874,-240.98874 0,-133.09612 107.89262,-240.98874 240.98874,-240.98874 133.09611,0 240.98874,107.89262 240.98874,240.98874 z m -15.06105,0 c 0,124.77802 -101.14968,225.92767 -225.92769,225.92767 -124.77802,0 -225.92769,-101.14965 -225.92769,-225.92767 0,-124.77803 101.14967,-225.92769 225.92769,-225.92769 124.77801,0 225.92769,101.14966 225.92769,225.92769 z m 131.7902,0 c 0,197.56467 -160.15323,357.71788 -357.71789,357.71788 -197.56467,0 -357.7179,-160.15321 -357.7179,-357.71788 0,-197.56467 160.15323,-357.7179 357.7179,-357.7179 197.56466,0 357.71789,160.15323 357.71789,357.7179 z m -15.06109,0 c 0,189.24655 -153.41025,342.6568 -342.6568,342.6568 -189.24655,0 -342.6568,-153.41025 -342.6568,-342.6568 0,-189.24657 153.41025,-342.65682 342.6568,-342.65682 189.24655,0 342.6568,153.41025 342.6568,342.65682 z" /></g></g></g></g></g></svg>